# xmcd CD database file
#
# Track frame offsets:
#	150
#	21378
#	39605
#	57734
#	76124
#	92161
#	111646
#	132112
#	151044
#	167353
#	184530
#	202765
#	220806
#	244358
#	314043
#
# Disc length: 4353 seconds
#
# Revision: 11
# Processed by: cddbd v1.5.1PL0 Copyright (c) Steve Scherf et al.
# Submitted via: CDex 1.51
#
DISCID=cc10ff0f
DTITLE=Joss Stone - Mind, Body and Soul
DYEAR=2004
DGENRE=R&B
TTITLE0=Right To Be Wrong
TTITLE1=Jet Lag
TTITLE2=You Had Me
TTITLE3=Spoiled
TTITLE4=Don't Cha Wanna Ride
TTITLE5=Less Is More
TTITLE6=Security
TTITLE7=Young At Heart
TTITLE8=Snakes And Ladders
TTITLE9=Understand
TTITLE10=Don't Know How
TTITLE11=Torn And Tattered
TTITLE12=Killing Time
TTITLE13=Sleep Like A Child
TTITLE14=Holding Out For A Hero
EXTD=YEAR: 2004
EXTT0=
EXTT1=
EXTT2=
EXTT3=
EXTT4=
EXTT5=
EXTT6=
EXTT7=
EXTT8=
EXTT9=
EXTT10=
EXTT11=
EXTT12=
EXTT13=
EXTT14=
PLAYORDER=
